<svg width="185" height="185" viewBox="0 0 185 185" fill="none" xmlns="http://www.w3.org/2000/svg">
<g clip-path="url(#clip0_2_135)">
<path d="M103.075 137.225H97.5453C95.5144 137.225 93.8625 138.878 93.8625 140.909V157.57C93.8625 159.601 95.5144 161.253 97.5453 161.253H103.075C108.161 161.253 112.297 157.119 112.297 152.036V146.442C112.297 141.36 108.161 137.225 103.075 137.225V137.225ZM106.837 152.037C106.837 154.107 105.149 155.792 103.075 155.792H99.3234V142.687H103.075C105.149 142.687 106.837 144.372 106.837 146.443V152.037Z" fill="black"/>
<path d="M84.5713 137.225H75.4372C73.929 137.225 72.7065 138.448 72.7065 139.956C72.7065 141.464 73.929 142.687 75.4372 142.687H83.9293V146.509H75.4372C73.929 146.509 72.7065 147.731 72.7065 149.239C72.7065 150.748 73.929 151.97 75.4372 151.97H83.9293V155.792H75.4372C73.929 155.792 72.7065 157.014 72.7065 158.523C72.7065 160.031 73.929 161.253 75.4372 161.253H84.5713C87.2286 161.253 89.391 159.09 89.391 156.432V142.046C89.3906 139.388 87.2286 137.225 84.5713 137.225V137.225Z" fill="black"/>
<path d="M184.836 155.316L180.238 139.177C179.824 137.727 178.314 136.886 176.863 137.3C175.413 137.713 174.572 139.224 174.986 140.674L178.229 152.056L145.61 133.886C145.622 133.49 145.618 113.162 145.618 113.162C145.618 111.654 144.396 110.431 142.888 110.431C141.379 110.431 140.157 111.654 140.157 113.162C140.157 113.162 140.167 134.044 140.127 134.387C140.019 134.467 126.736 141.884 126.736 141.884C123.534 126.949 110.792 115.515 95.2272 114.308V106.877L140.157 81.857V100.641C140.157 102.149 141.379 103.372 142.888 103.372C144.396 103.372 145.618 102.149 145.618 100.641V76.654C145.578 75.2889 144.861 74.169 143.469 73.2948L95.2276 46.4309V9.36217L103.59 17.7308C104.124 18.2643 104.823 18.5313 105.522 18.5313C106.221 18.5313 106.919 18.2647 107.452 17.7322C108.519 16.6662 108.52 14.9373 107.454 13.8705L95.6076 2.01663C94.801 1.19408 93.6692 0.722656 92.497 0.722656C91.3244 0.722656 90.2236 1.17819 89.3982 2.00471L77.5404 13.8701C76.4743 14.9369 76.4747 16.6658 77.5414 17.7318C78.6086 18.7982 80.3371 18.7975 81.4031 17.7308L89.7663 9.36217V46.4305L70.9961 56.8799C69.6786 57.6132 69.205 59.2764 69.9383 60.5938C70.672 61.9116 72.3352 62.3849 73.6523 61.6515L92.497 51.161L138.276 76.6536L92.4973 102.146L46.719 76.649L64.0959 66.9037C65.4112 66.166 65.8798 64.5018 65.1417 63.1865C64.4041 61.8708 62.7402 61.4026 61.4245 62.1403L41.5348 73.2948C40.165 74.0578 39.3814 75.286 39.3843 76.6638C39.3843 76.6695 39.3854 76.675 39.3854 76.6804C39.3854 76.6804 39.3811 133.498 39.3923 133.886L6.77371 152.052L10.0087 140.672C10.4212 139.222 9.57949 137.712 8.12874 137.299C6.6787 136.886 5.16798 137.728 4.75544 139.179L0.164024 155.331C-0.148452 156.452 -0.0111789 157.628 0.550556 158.639C1.11626 159.658 2.08079 160.421 3.18222 160.729L19.3103 165.329C19.5607 165.401 19.8128 165.435 20.061 165.435C21.2498 165.435 22.3433 164.652 22.6854 163.453C23.0991 162.002 22.2588 160.491 20.8088 160.078L9.42091 156.829L41.732 138.835C42.0788 139.089 57.5144 147.72 57.5144 147.72C57.4928 148.224 57.4801 148.731 57.4801 149.24C57.4801 168.56 73.1888 184.278 92.4977 184.278C111.807 184.278 127.515 168.56 127.515 149.24C127.515 148.731 127.502 148.224 127.481 147.72C127.481 147.72 142.927 139.087 143.272 138.834L175.578 156.831L164.197 160.078C162.746 160.492 161.906 162.003 162.32 163.453C162.662 164.653 163.756 165.435 164.944 165.435C165.193 165.435 165.445 165.401 165.695 165.33L181.824 160.729C182.927 160.414 183.881 159.653 184.445 158.639C185.009 157.619 185.15 156.445 184.836 155.316V155.316ZM45.5883 134.827C45.1935 134.606 44.984 134.468 44.8745 134.388C44.8355 134.047 44.8467 81.8577 44.8467 81.8577L89.7663 106.877V114.308C74.2021 115.515 61.4599 126.948 58.2579 141.883L45.5883 134.827ZM92.497 178.816C76.1998 178.816 62.941 165.548 62.941 149.24C62.941 132.931 76.1998 119.663 92.497 119.663C108.794 119.663 122.053 132.931 122.053 149.24C122.053 165.548 108.794 178.816 92.497 178.816Z" fill="black"/>
</g>
<defs>
<clipPath id="clip0_2_135">
<rect width="185" height="185" fill="white"/>
</clipPath>
</defs>
</svg>
