<svg width="210" height="210" viewBox="0 0 210 210" fill="none" xmlns="http://www.w3.org/2000/svg">
<path d="M178.5 51.1875H129.5V47.6875C129.479 30.2986 115.389 16.208 98 16.1875H31.5C14.1111 16.208 0.0205078 30.2986 0 47.6875V89.6875C0.0205078 107.076 14.1111 121.167 31.5 121.188H35V149.188C35 150.603 35.8528 151.879 37.1602 152.421C38.4675 152.963 39.9731 152.662 40.9746 151.662L71.4492 121.188H80.5V124.688C80.5205 142.076 94.6111 156.167 112 156.188H131.551L169.025 193.662C170.027 194.662 171.532 194.963 172.84 194.421C174.147 193.879 175 192.603 175 191.188V156.188H178.5C195.889 156.167 209.979 142.076 210 124.688V82.6875C209.979 65.2986 195.889 51.208 178.5 51.1875ZM70 114.188C69.072 114.188 68.1816 114.557 67.5254 115.213L42 140.738V117.688C42 115.755 40.4329 114.188 38.5 114.188H31.5C17.9751 114.172 7.01538 103.212 7 89.6875V47.6875C7.01538 34.1626 17.9751 23.2029 31.5 23.1875H98C111.525 23.2029 122.485 34.1626 122.5 47.6875V51.1875H112C94.6111 51.208 80.5205 65.2986 80.5 82.6875V114.188H70ZM203 124.688C202.985 138.212 192.025 149.172 178.5 149.188H171.5C169.567 149.188 168 150.755 168 152.688V182.738L135.475 150.213C134.818 149.557 133.928 149.188 133 149.188H112C98.4751 149.172 87.5154 138.212 87.5 124.688V82.6875C87.5154 69.1626 98.4751 58.2029 112 58.1875H178.5C192.025 58.2029 202.985 69.1626 203 82.6875V124.688Z" fill="black"/>
<path d="M185.5 79.1875H105C103.067 79.1875 101.5 80.7546 101.5 82.6875C101.5 84.6204 103.067 86.1875 105 86.1875H185.5C187.433 86.1875 189 84.6204 189 82.6875C189 80.7546 187.433 79.1875 185.5 79.1875Z" fill="black"/>
<path d="M185.5 100.188H105C103.067 100.188 101.5 101.755 101.5 103.687C101.5 105.62 103.067 107.187 105 107.187H185.5C187.433 107.187 189 105.62 189 103.687C189 101.755 187.433 100.188 185.5 100.188Z" fill="black"/>
<path d="M185.5 121.188H105C103.067 121.188 101.5 122.755 101.5 124.688C101.5 126.62 103.067 128.188 105 128.188H185.5C187.433 128.188 189 126.62 189 124.688C189 122.755 187.433 121.188 185.5 121.188Z" fill="black"/>
<path d="M21 51.1875H94.5C96.4329 51.1875 98 49.6204 98 47.6875C98 45.7546 96.4329 44.1875 94.5 44.1875H21C19.0671 44.1875 17.5 45.7546 17.5 47.6875C17.5 49.6204 19.0671 51.1875 21 51.1875Z" fill="black"/>
<path d="M73.5 65.1875H21C19.0671 65.1875 17.5 66.7546 17.5 68.6875C17.5 70.6204 19.0671 72.1875 21 72.1875H73.5C75.4329 72.1875 77 70.6204 77 68.6875C77 66.7546 75.4329 65.1875 73.5 65.1875Z" fill="black"/>
<path d="M70 86.1875H21C19.0671 86.1875 17.5 87.7546 17.5 89.6875C17.5 91.6204 19.0671 93.1875 21 93.1875H70C71.9329 93.1875 73.5 91.6204 73.5 89.6875C73.5 87.7546 71.9329 86.1875 70 86.1875Z" fill="black"/>
</svg>
