<svg width="243" height="243" viewBox="0 0 243 243" fill="none" xmlns="http://www.w3.org/2000/svg">
<path d="M186.3 159.975C199.701 159.975 210.6 170.874 210.6 184.275C210.6 197.677 199.701 208.575 186.3 208.575C172.898 208.575 162 197.677 162 184.275C162 170.874 172.899 159.975 186.3 159.975ZM186.3 200.475C195.234 200.475 202.5 193.209 202.5 184.275C202.5 175.341 195.234 168.075 186.3 168.075C177.366 168.075 170.1 175.341 170.1 184.275C170.1 193.209 177.366 200.475 186.3 200.475Z" fill="black"/>
<path d="M48.6 159.975C62.0016 159.975 72.9 170.874 72.9 184.275C72.9 197.677 62.0016 208.575 48.6 208.575C35.1985 208.575 24.3 197.677 24.3 184.275C24.3 170.874 35.1985 159.975 48.6 159.975ZM48.6 200.475C57.5345 200.475 64.7999 193.209 64.7999 184.275C64.7999 175.341 57.5341 168.075 48.6 168.075C39.6655 168.075 32.4002 175.341 32.4002 184.275C32.4002 193.209 39.6655 200.475 48.6 200.475Z" fill="black"/>
<path d="M0.644023 137.534L37.094 80.834C37.8392 79.6755 39.123 78.975 40.5003 78.975H85.05C87.2897 78.975 89.0998 80.7894 89.0998 83.0248V184.275C89.0998 186.514 87.2897 188.325 85.05 188.325H68.8501V180.224H81.0001V87.0751H42.7115L8.10013 140.916V180.225H28.3503V188.325H4.0503C1.81061 188.325 0.00045836 186.515 0.00045836 184.275V139.725C-1.62497e-05 138.951 0.22257 138.186 0.644023 137.534Z" fill="black"/>
<path d="M64.7998 131.625V103.275H32.3997V95.1748H68.8497C71.0894 95.1748 72.8995 96.9892 72.8995 99.2246V135.675C72.8995 137.914 71.0894 139.724 68.8497 139.724H8.09968V131.624H64.7998V131.625Z" fill="black"/>
<path d="M85.05 50.6251H238.95C241.186 50.6251 243 52.4396 243 54.675V184.275C243 186.515 241.186 188.325 238.95 188.325H206.55V180.225H234.9V58.7248H89.0998V180.225H166.05V188.325H85.05C82.8103 188.325 81.0002 186.515 81.0002 184.275V54.675C81.0002 52.4396 82.8103 50.6251 85.05 50.6251Z" fill="black"/>
<path d="M214.65 164.025H238.95V172.125H214.65V164.025Z" fill="black"/>
<path d="M89.0998 164.025H157.95V172.125H89.0998V164.025Z" fill="black"/>
<path d="M4.05031 164.025H20.2502V172.125H4.05031V164.025Z" fill="black"/>
<path d="M85.05 66.825H226.8V74.9251H85.05V66.825Z" fill="black"/>
<path d="M182.25 180.225H190.35V188.325H182.25V180.225Z" fill="black"/>
<path d="M44.5497 180.225H52.6499V188.325H44.5497V180.225Z" fill="black"/>
<path d="M170.1 34.4248H226.8V42.525H170.1V34.4248Z" fill="black"/>
<path d="M234.9 34.4248H243V42.525H234.9V34.4248Z" fill="black"/>
</svg>
